<mxfile host="Electron" modified="2024-06-13T09:03:48.772Z" agent="Mozilla/5.0 (Windows NT 10.0; Win64; x64) AppleWebKit/537.36 (KHTML, like Gecko) draw.io/24.0.4 Chrome/120.0.6099.109 Electron/28.1.0 Safari/537.36" etag="VnvUk7oa0n6ruSedlmmu" version="24.0.4" type="device">
  <diagram name="Страница — 1" id="dHAwd9yZ2RJQf0_hCx3h">
    <mxGraphModel dx="1615" dy="955" grid="1" gridSize="10" guides="1" tooltips="1" connect="1" arrows="1" fold="1" page="1" pageScale="1" pageWidth="827" pageHeight="1169" math="0" shadow="0">
      <root>
        <mxCell id="0" />
        <mxCell id="1" parent="0" />
        <mxCell id="Uod6WJZy2B9IxWin4_iO-7" style="edgeStyle=orthogonalEdgeStyle;rounded=0;orthogonalLoop=1;jettySize=auto;html=1;endArrow=none;endFill=0;" parent="1" source="Uod6WJZy2B9IxWin4_iO-1" target="Uod6WJZy2B9IxWin4_iO-6" edge="1">
          <mxGeometry relative="1" as="geometry" />
        </mxCell>
        <mxCell id="0Z7Hvn-ogQvWHSM3ic3e-48" style="edgeStyle=orthogonalEdgeStyle;rounded=0;orthogonalLoop=1;jettySize=auto;html=1;endArrow=none;endFill=0;" edge="1" parent="1" source="Uod6WJZy2B9IxWin4_iO-1" target="0Z7Hvn-ogQvWHSM3ic3e-47">
          <mxGeometry relative="1" as="geometry">
            <Array as="points">
              <mxPoint x="665" y="25" />
            </Array>
          </mxGeometry>
        </mxCell>
        <mxCell id="Uod6WJZy2B9IxWin4_iO-1" value="S" style="text;html=1;align=center;verticalAlign=middle;resizable=0;points=[];autosize=1;strokeColor=none;fillColor=none;fontSize=14;" parent="1" vertex="1">
          <mxGeometry x="420" y="10" width="30" height="30" as="geometry" />
        </mxCell>
        <mxCell id="Uod6WJZy2B9IxWin4_iO-4" value=";" style="text;html=1;align=center;verticalAlign=middle;resizable=0;points=[];autosize=1;strokeColor=none;fillColor=none;fontSize=14;" parent="1" vertex="1">
          <mxGeometry x="365" y="50" width="30" height="30" as="geometry" />
        </mxCell>
        <mxCell id="Uod6WJZy2B9IxWin4_iO-5" style="edgeStyle=orthogonalEdgeStyle;rounded=0;orthogonalLoop=1;jettySize=auto;html=1;entryX=0.467;entryY=-0.017;entryDx=0;entryDy=0;entryPerimeter=0;endArrow=none;endFill=0;" parent="1" source="Uod6WJZy2B9IxWin4_iO-1" target="Uod6WJZy2B9IxWin4_iO-4" edge="1">
          <mxGeometry relative="1" as="geometry" />
        </mxCell>
        <mxCell id="Uod6WJZy2B9IxWin4_iO-13" style="edgeStyle=orthogonalEdgeStyle;rounded=0;orthogonalLoop=1;jettySize=auto;html=1;endArrow=none;endFill=0;" parent="1" source="Uod6WJZy2B9IxWin4_iO-6" target="Uod6WJZy2B9IxWin4_iO-8" edge="1">
          <mxGeometry relative="1" as="geometry">
            <Array as="points">
              <mxPoint x="305" y="90" />
              <mxPoint x="180" y="90" />
            </Array>
          </mxGeometry>
        </mxCell>
        <mxCell id="Uod6WJZy2B9IxWin4_iO-14" style="edgeStyle=orthogonalEdgeStyle;rounded=0;orthogonalLoop=1;jettySize=auto;html=1;endArrow=none;endFill=0;" parent="1" source="Uod6WJZy2B9IxWin4_iO-6" target="Uod6WJZy2B9IxWin4_iO-10" edge="1">
          <mxGeometry relative="1" as="geometry">
            <Array as="points">
              <mxPoint x="305" y="90" />
              <mxPoint x="380" y="90" />
            </Array>
          </mxGeometry>
        </mxCell>
        <mxCell id="Uod6WJZy2B9IxWin4_iO-6" value="FOR" style="text;html=1;align=center;verticalAlign=middle;resizable=0;points=[];autosize=1;strokeColor=none;fillColor=none;" parent="1" vertex="1">
          <mxGeometry x="280" y="50" width="50" height="30" as="geometry" />
        </mxCell>
        <mxCell id="0Z7Hvn-ogQvWHSM3ic3e-9" style="edgeStyle=orthogonalEdgeStyle;rounded=0;orthogonalLoop=1;jettySize=auto;html=1;endArrow=none;endFill=0;" edge="1" parent="1" source="Uod6WJZy2B9IxWin4_iO-8" target="0Z7Hvn-ogQvWHSM3ic3e-1">
          <mxGeometry relative="1" as="geometry">
            <Array as="points">
              <mxPoint x="180" y="140" />
              <mxPoint x="45" y="140" />
            </Array>
          </mxGeometry>
        </mxCell>
        <mxCell id="Uod6WJZy2B9IxWin4_iO-8" value="NV" style="text;html=1;align=center;verticalAlign=middle;resizable=0;points=[];autosize=1;strokeColor=none;fillColor=none;" parent="1" vertex="1">
          <mxGeometry x="160" y="100" width="40" height="30" as="geometry" />
        </mxCell>
        <mxCell id="0Z7Hvn-ogQvWHSM3ic3e-14" style="edgeStyle=orthogonalEdgeStyle;rounded=0;orthogonalLoop=1;jettySize=auto;html=1;endArrow=none;endFill=0;" edge="1" parent="1" source="Uod6WJZy2B9IxWin4_iO-9" target="0Z7Hvn-ogQvWHSM3ic3e-11">
          <mxGeometry relative="1" as="geometry">
            <Array as="points">
              <mxPoint x="275" y="170" />
              <mxPoint x="215" y="170" />
            </Array>
          </mxGeometry>
        </mxCell>
        <mxCell id="0Z7Hvn-ogQvWHSM3ic3e-15" style="edgeStyle=orthogonalEdgeStyle;rounded=0;orthogonalLoop=1;jettySize=auto;html=1;endArrow=none;endFill=0;" edge="1" parent="1" source="Uod6WJZy2B9IxWin4_iO-9" target="0Z7Hvn-ogQvWHSM3ic3e-13">
          <mxGeometry relative="1" as="geometry">
            <Array as="points">
              <mxPoint x="275" y="160" />
              <mxPoint x="275" y="160" />
            </Array>
          </mxGeometry>
        </mxCell>
        <mxCell id="0Z7Hvn-ogQvWHSM3ic3e-16" style="edgeStyle=orthogonalEdgeStyle;rounded=0;orthogonalLoop=1;jettySize=auto;html=1;endArrow=none;endFill=0;" edge="1" parent="1" source="Uod6WJZy2B9IxWin4_iO-9" target="0Z7Hvn-ogQvWHSM3ic3e-12">
          <mxGeometry relative="1" as="geometry">
            <Array as="points">
              <mxPoint x="275" y="170" />
              <mxPoint x="330" y="170" />
            </Array>
          </mxGeometry>
        </mxCell>
        <mxCell id="Uod6WJZy2B9IxWin4_iO-9" value="CONDITION" style="text;html=1;align=center;verticalAlign=middle;resizable=0;points=[];autosize=1;strokeColor=none;fillColor=none;" parent="1" vertex="1">
          <mxGeometry x="230" y="100" width="90" height="30" as="geometry" />
        </mxCell>
        <mxCell id="Uod6WJZy2B9IxWin4_iO-10" value="OPERATION" style="text;html=1;align=center;verticalAlign=middle;resizable=0;points=[];autosize=1;strokeColor=none;fillColor=none;" parent="1" vertex="1">
          <mxGeometry x="335" y="100" width="90" height="30" as="geometry" />
        </mxCell>
        <mxCell id="Uod6WJZy2B9IxWin4_iO-12" style="edgeStyle=orthogonalEdgeStyle;rounded=0;orthogonalLoop=1;jettySize=auto;html=1;entryX=0.556;entryY=0.043;entryDx=0;entryDy=0;entryPerimeter=0;endArrow=none;endFill=0;" parent="1" target="Uod6WJZy2B9IxWin4_iO-9" edge="1">
          <mxGeometry relative="1" as="geometry">
            <Array as="points">
              <mxPoint x="280" y="90" />
            </Array>
            <mxPoint x="290" y="90" as="sourcePoint" />
          </mxGeometry>
        </mxCell>
        <mxCell id="0Z7Hvn-ogQvWHSM3ic3e-1" value="TYPE" style="text;html=1;align=center;verticalAlign=middle;resizable=0;points=[];autosize=1;strokeColor=none;fillColor=none;" vertex="1" parent="1">
          <mxGeometry x="20" y="152" width="50" height="30" as="geometry" />
        </mxCell>
        <mxCell id="0Z7Hvn-ogQvWHSM3ic3e-2" value="id4" style="text;html=1;align=center;verticalAlign=middle;resizable=0;points=[];autosize=1;strokeColor=none;fillColor=none;" vertex="1" parent="1">
          <mxGeometry x="80" y="152" width="40" height="30" as="geometry" />
        </mxCell>
        <mxCell id="0Z7Hvn-ogQvWHSM3ic3e-3" value="=" style="text;html=1;align=center;verticalAlign=middle;resizable=0;points=[];autosize=1;strokeColor=none;fillColor=none;" vertex="1" parent="1">
          <mxGeometry x="130" y="152" width="30" height="30" as="geometry" />
        </mxCell>
        <mxCell id="0Z7Hvn-ogQvWHSM3ic3e-4" value="const1" style="text;html=1;align=center;verticalAlign=middle;resizable=0;points=[];autosize=1;strokeColor=none;fillColor=none;" vertex="1" parent="1">
          <mxGeometry x="160" y="152" width="60" height="30" as="geometry" />
        </mxCell>
        <mxCell id="0Z7Hvn-ogQvWHSM3ic3e-6" style="edgeStyle=orthogonalEdgeStyle;rounded=0;orthogonalLoop=1;jettySize=auto;html=1;entryX=0.5;entryY=0.267;entryDx=0;entryDy=0;entryPerimeter=0;endArrow=none;endFill=0;" edge="1" parent="1" source="Uod6WJZy2B9IxWin4_iO-8" target="0Z7Hvn-ogQvWHSM3ic3e-4">
          <mxGeometry relative="1" as="geometry">
            <Array as="points">
              <mxPoint x="180" y="140" />
              <mxPoint x="190" y="140" />
            </Array>
          </mxGeometry>
        </mxCell>
        <mxCell id="0Z7Hvn-ogQvWHSM3ic3e-7" style="edgeStyle=orthogonalEdgeStyle;rounded=0;orthogonalLoop=1;jettySize=auto;html=1;entryX=0.474;entryY=0.018;entryDx=0;entryDy=0;entryPerimeter=0;endArrow=none;endFill=0;" edge="1" parent="1" source="Uod6WJZy2B9IxWin4_iO-8" target="0Z7Hvn-ogQvWHSM3ic3e-3">
          <mxGeometry relative="1" as="geometry">
            <Array as="points">
              <mxPoint x="180" y="140" />
              <mxPoint x="144" y="140" />
            </Array>
          </mxGeometry>
        </mxCell>
        <mxCell id="0Z7Hvn-ogQvWHSM3ic3e-8" style="edgeStyle=orthogonalEdgeStyle;rounded=0;orthogonalLoop=1;jettySize=auto;html=1;entryX=0.531;entryY=0.033;entryDx=0;entryDy=0;entryPerimeter=0;endArrow=none;endFill=0;" edge="1" parent="1" source="Uod6WJZy2B9IxWin4_iO-8" target="0Z7Hvn-ogQvWHSM3ic3e-2">
          <mxGeometry relative="1" as="geometry">
            <Array as="points">
              <mxPoint x="180" y="140" />
              <mxPoint x="101" y="140" />
            </Array>
          </mxGeometry>
        </mxCell>
        <mxCell id="0Z7Hvn-ogQvWHSM3ic3e-20" style="edgeStyle=orthogonalEdgeStyle;rounded=0;orthogonalLoop=1;jettySize=auto;html=1;endArrow=none;endFill=0;" edge="1" parent="1" source="0Z7Hvn-ogQvWHSM3ic3e-11" target="0Z7Hvn-ogQvWHSM3ic3e-18">
          <mxGeometry relative="1" as="geometry" />
        </mxCell>
        <mxCell id="0Z7Hvn-ogQvWHSM3ic3e-11" value="OPERAND" style="text;html=1;align=center;verticalAlign=middle;resizable=0;points=[];autosize=1;strokeColor=none;fillColor=none;" vertex="1" parent="1">
          <mxGeometry x="180" y="190" width="80" height="30" as="geometry" />
        </mxCell>
        <mxCell id="0Z7Hvn-ogQvWHSM3ic3e-12" value="OPERAND" style="text;html=1;align=center;verticalAlign=middle;resizable=0;points=[];autosize=1;strokeColor=none;fillColor=none;" vertex="1" parent="1">
          <mxGeometry x="285" y="190" width="80" height="30" as="geometry" />
        </mxCell>
        <mxCell id="0Z7Hvn-ogQvWHSM3ic3e-21" style="edgeStyle=orthogonalEdgeStyle;rounded=0;orthogonalLoop=1;jettySize=auto;html=1;endArrow=none;endFill=0;" edge="1" parent="1" source="0Z7Hvn-ogQvWHSM3ic3e-13" target="0Z7Hvn-ogQvWHSM3ic3e-19">
          <mxGeometry relative="1" as="geometry" />
        </mxCell>
        <mxCell id="0Z7Hvn-ogQvWHSM3ic3e-13" value="LOS" style="text;html=1;align=center;verticalAlign=middle;resizable=0;points=[];autosize=1;strokeColor=none;fillColor=none;" vertex="1" parent="1">
          <mxGeometry x="250" y="190" width="50" height="30" as="geometry" />
        </mxCell>
        <mxCell id="0Z7Hvn-ogQvWHSM3ic3e-18" value="id4" style="text;html=1;align=center;verticalAlign=middle;resizable=0;points=[];autosize=1;strokeColor=none;fillColor=none;" vertex="1" parent="1">
          <mxGeometry x="200" y="240" width="40" height="30" as="geometry" />
        </mxCell>
        <mxCell id="0Z7Hvn-ogQvWHSM3ic3e-19" value="&amp;lt;" style="text;html=1;align=center;verticalAlign=middle;resizable=0;points=[];autosize=1;strokeColor=none;fillColor=none;" vertex="1" parent="1">
          <mxGeometry x="260" y="240" width="30" height="30" as="geometry" />
        </mxCell>
        <mxCell id="0Z7Hvn-ogQvWHSM3ic3e-22" value="OPERAND.FUNCTION" style="text;html=1;align=center;verticalAlign=middle;resizable=0;points=[];autosize=1;strokeColor=none;fillColor=none;" vertex="1" parent="1">
          <mxGeometry x="264" y="260" width="150" height="30" as="geometry" />
        </mxCell>
        <mxCell id="0Z7Hvn-ogQvWHSM3ic3e-23" style="edgeStyle=orthogonalEdgeStyle;rounded=0;orthogonalLoop=1;jettySize=auto;html=1;entryX=0.542;entryY=-0.077;entryDx=0;entryDy=0;entryPerimeter=0;endArrow=none;endFill=0;" edge="1" parent="1" source="0Z7Hvn-ogQvWHSM3ic3e-12" target="0Z7Hvn-ogQvWHSM3ic3e-22">
          <mxGeometry relative="1" as="geometry" />
        </mxCell>
        <mxCell id="0Z7Hvn-ogQvWHSM3ic3e-25" value="OPERAND" style="text;html=1;align=center;verticalAlign=middle;resizable=0;points=[];autosize=1;strokeColor=none;fillColor=none;" vertex="1" parent="1">
          <mxGeometry x="220" y="308" width="80" height="30" as="geometry" />
        </mxCell>
        <mxCell id="0Z7Hvn-ogQvWHSM3ic3e-32" style="edgeStyle=orthogonalEdgeStyle;rounded=0;orthogonalLoop=1;jettySize=auto;html=1;endArrow=none;endFill=0;" edge="1" parent="1" source="0Z7Hvn-ogQvWHSM3ic3e-26" target="0Z7Hvn-ogQvWHSM3ic3e-31">
          <mxGeometry relative="1" as="geometry" />
        </mxCell>
        <mxCell id="0Z7Hvn-ogQvWHSM3ic3e-26" value="FUNCTION" style="text;html=1;align=center;verticalAlign=middle;resizable=0;points=[];autosize=1;strokeColor=none;fillColor=none;" vertex="1" parent="1">
          <mxGeometry x="355" y="308" width="90" height="30" as="geometry" />
        </mxCell>
        <mxCell id="0Z7Hvn-ogQvWHSM3ic3e-27" style="edgeStyle=orthogonalEdgeStyle;rounded=0;orthogonalLoop=1;jettySize=auto;html=1;entryX=0.527;entryY=0.014;entryDx=0;entryDy=0;entryPerimeter=0;endArrow=none;endFill=0;" edge="1" parent="1" source="0Z7Hvn-ogQvWHSM3ic3e-22" target="0Z7Hvn-ogQvWHSM3ic3e-25">
          <mxGeometry relative="1" as="geometry">
            <Array as="points">
              <mxPoint x="339" y="300" />
              <mxPoint x="262" y="300" />
            </Array>
          </mxGeometry>
        </mxCell>
        <mxCell id="0Z7Hvn-ogQvWHSM3ic3e-28" style="edgeStyle=orthogonalEdgeStyle;rounded=0;orthogonalLoop=1;jettySize=auto;html=1;entryX=0.5;entryY=0.067;entryDx=0;entryDy=0;entryPerimeter=0;endArrow=none;endFill=0;" edge="1" parent="1" source="0Z7Hvn-ogQvWHSM3ic3e-22" target="0Z7Hvn-ogQvWHSM3ic3e-26">
          <mxGeometry relative="1" as="geometry">
            <Array as="points">
              <mxPoint x="339" y="300" />
              <mxPoint x="400" y="300" />
            </Array>
          </mxGeometry>
        </mxCell>
        <mxCell id="0Z7Hvn-ogQvWHSM3ic3e-29" value="id5" style="text;html=1;align=center;verticalAlign=middle;resizable=0;points=[];autosize=1;strokeColor=none;fillColor=none;" vertex="1" parent="1">
          <mxGeometry x="240" y="350" width="40" height="30" as="geometry" />
        </mxCell>
        <mxCell id="0Z7Hvn-ogQvWHSM3ic3e-30" style="edgeStyle=orthogonalEdgeStyle;rounded=0;orthogonalLoop=1;jettySize=auto;html=1;endArrow=none;endFill=0;" edge="1" parent="1" source="0Z7Hvn-ogQvWHSM3ic3e-25">
          <mxGeometry relative="1" as="geometry">
            <mxPoint x="260" y="360" as="targetPoint" />
          </mxGeometry>
        </mxCell>
        <mxCell id="0Z7Hvn-ogQvWHSM3ic3e-31" value="length()" style="text;html=1;align=center;verticalAlign=middle;resizable=0;points=[];autosize=1;strokeColor=none;fillColor=none;" vertex="1" parent="1">
          <mxGeometry x="370" y="348" width="60" height="30" as="geometry" />
        </mxCell>
        <mxCell id="0Z7Hvn-ogQvWHSM3ic3e-39" style="edgeStyle=orthogonalEdgeStyle;rounded=0;orthogonalLoop=1;jettySize=auto;html=1;endArrow=none;endFill=0;" edge="1" parent="1" source="0Z7Hvn-ogQvWHSM3ic3e-34" target="0Z7Hvn-ogQvWHSM3ic3e-38">
          <mxGeometry relative="1" as="geometry" />
        </mxCell>
        <mxCell id="0Z7Hvn-ogQvWHSM3ic3e-34" value="OS" style="text;html=1;align=center;verticalAlign=middle;resizable=0;points=[];autosize=1;strokeColor=none;fillColor=none;" vertex="1" parent="1">
          <mxGeometry x="470" y="210" width="40" height="30" as="geometry" />
        </mxCell>
        <mxCell id="0Z7Hvn-ogQvWHSM3ic3e-35" value="OPERAND" style="text;html=1;align=center;verticalAlign=middle;resizable=0;points=[];autosize=1;strokeColor=none;fillColor=none;" vertex="1" parent="1">
          <mxGeometry x="360" y="210" width="80" height="30" as="geometry" />
        </mxCell>
        <mxCell id="0Z7Hvn-ogQvWHSM3ic3e-36" style="edgeStyle=orthogonalEdgeStyle;rounded=0;orthogonalLoop=1;jettySize=auto;html=1;entryX=0.475;entryY=0.04;entryDx=0;entryDy=0;entryPerimeter=0;endArrow=none;endFill=0;" edge="1" parent="1" source="Uod6WJZy2B9IxWin4_iO-10" target="0Z7Hvn-ogQvWHSM3ic3e-35">
          <mxGeometry relative="1" as="geometry" />
        </mxCell>
        <mxCell id="0Z7Hvn-ogQvWHSM3ic3e-37" style="edgeStyle=orthogonalEdgeStyle;rounded=0;orthogonalLoop=1;jettySize=auto;html=1;entryX=0.5;entryY=-0.067;entryDx=0;entryDy=0;entryPerimeter=0;endArrow=none;endFill=0;" edge="1" parent="1" source="Uod6WJZy2B9IxWin4_iO-10" target="0Z7Hvn-ogQvWHSM3ic3e-34">
          <mxGeometry relative="1" as="geometry">
            <Array as="points">
              <mxPoint x="380" y="170" />
              <mxPoint x="490" y="170" />
            </Array>
          </mxGeometry>
        </mxCell>
        <mxCell id="0Z7Hvn-ogQvWHSM3ic3e-38" value="++" style="text;html=1;align=center;verticalAlign=middle;resizable=0;points=[];autosize=1;strokeColor=none;fillColor=none;" vertex="1" parent="1">
          <mxGeometry x="470" y="270" width="40" height="30" as="geometry" />
        </mxCell>
        <mxCell id="0Z7Hvn-ogQvWHSM3ic3e-40" value="id4" style="text;html=1;align=center;verticalAlign=middle;resizable=0;points=[];autosize=1;strokeColor=none;fillColor=none;" vertex="1" parent="1">
          <mxGeometry x="420" y="260" width="40" height="30" as="geometry" />
        </mxCell>
        <mxCell id="0Z7Hvn-ogQvWHSM3ic3e-41" style="edgeStyle=orthogonalEdgeStyle;rounded=0;orthogonalLoop=1;jettySize=auto;html=1;entryX=0.49;entryY=0.027;entryDx=0;entryDy=0;entryPerimeter=0;endArrow=none;endFill=0;" edge="1" parent="1" source="0Z7Hvn-ogQvWHSM3ic3e-35" target="0Z7Hvn-ogQvWHSM3ic3e-40">
          <mxGeometry relative="1" as="geometry">
            <Array as="points">
              <mxPoint x="400" y="249" />
            </Array>
          </mxGeometry>
        </mxCell>
        <mxCell id="0Z7Hvn-ogQvWHSM3ic3e-50" style="edgeStyle=orthogonalEdgeStyle;rounded=0;orthogonalLoop=1;jettySize=auto;html=1;endArrow=none;endFill=0;exitX=0.497;exitY=1.029;exitDx=0;exitDy=0;exitPerimeter=0;" edge="1" parent="1" source="0Z7Hvn-ogQvWHSM3ic3e-47" target="0Z7Hvn-ogQvWHSM3ic3e-49">
          <mxGeometry relative="1" as="geometry">
            <Array as="points">
              <mxPoint x="665" y="80" />
              <mxPoint x="595" y="80" />
            </Array>
          </mxGeometry>
        </mxCell>
        <mxCell id="0Z7Hvn-ogQvWHSM3ic3e-47" value="S" style="text;html=1;align=center;verticalAlign=middle;resizable=0;points=[];autosize=1;strokeColor=none;fillColor=none;" vertex="1" parent="1">
          <mxGeometry x="650" y="40" width="30" height="30" as="geometry" />
        </mxCell>
        <mxCell id="0Z7Hvn-ogQvWHSM3ic3e-52" style="edgeStyle=orthogonalEdgeStyle;rounded=0;orthogonalLoop=1;jettySize=auto;html=1;endArrow=none;endFill=0;" edge="1" parent="1" source="0Z7Hvn-ogQvWHSM3ic3e-49" target="0Z7Hvn-ogQvWHSM3ic3e-51">
          <mxGeometry relative="1" as="geometry" />
        </mxCell>
        <mxCell id="0Z7Hvn-ogQvWHSM3ic3e-49" value="IF" style="text;html=1;align=center;verticalAlign=middle;resizable=0;points=[];autosize=1;strokeColor=none;fillColor=none;" vertex="1" parent="1">
          <mxGeometry x="580" y="90" width="30" height="30" as="geometry" />
        </mxCell>
        <mxCell id="0Z7Hvn-ogQvWHSM3ic3e-51" value="CONDITION" style="text;html=1;align=center;verticalAlign=middle;resizable=0;points=[];autosize=1;strokeColor=none;fillColor=none;" vertex="1" parent="1">
          <mxGeometry x="550" y="140" width="90" height="30" as="geometry" />
        </mxCell>
        <mxCell id="0Z7Hvn-ogQvWHSM3ic3e-65" style="edgeStyle=orthogonalEdgeStyle;rounded=0;orthogonalLoop=1;jettySize=auto;html=1;endArrow=none;endFill=0;" edge="1" parent="1" source="0Z7Hvn-ogQvWHSM3ic3e-53" target="0Z7Hvn-ogQvWHSM3ic3e-62">
          <mxGeometry relative="1" as="geometry">
            <Array as="points">
              <mxPoint x="560" y="279" />
              <mxPoint x="520" y="279" />
            </Array>
          </mxGeometry>
        </mxCell>
        <mxCell id="0Z7Hvn-ogQvWHSM3ic3e-53" value="OPERAND" style="text;html=1;align=center;verticalAlign=middle;resizable=0;points=[];autosize=1;strokeColor=none;fillColor=none;" vertex="1" parent="1">
          <mxGeometry x="520" y="220" width="80" height="30" as="geometry" />
        </mxCell>
        <mxCell id="0Z7Hvn-ogQvWHSM3ic3e-54" value="OPERAND" style="text;html=1;align=center;verticalAlign=middle;resizable=0;points=[];autosize=1;strokeColor=none;fillColor=none;" vertex="1" parent="1">
          <mxGeometry x="720" y="220" width="80" height="30" as="geometry" />
        </mxCell>
        <mxCell id="0Z7Hvn-ogQvWHSM3ic3e-57" style="edgeStyle=orthogonalEdgeStyle;rounded=0;orthogonalLoop=1;jettySize=auto;html=1;entryX=0.503;entryY=-0.064;entryDx=0;entryDy=0;entryPerimeter=0;endArrow=none;endFill=0;" edge="1" parent="1" source="0Z7Hvn-ogQvWHSM3ic3e-51" target="0Z7Hvn-ogQvWHSM3ic3e-53">
          <mxGeometry relative="1" as="geometry" />
        </mxCell>
        <mxCell id="0Z7Hvn-ogQvWHSM3ic3e-58" style="edgeStyle=orthogonalEdgeStyle;rounded=0;orthogonalLoop=1;jettySize=auto;html=1;entryX=0.516;entryY=-0.033;entryDx=0;entryDy=0;entryPerimeter=0;endArrow=none;endFill=0;" edge="1" parent="1" source="0Z7Hvn-ogQvWHSM3ic3e-51" target="0Z7Hvn-ogQvWHSM3ic3e-54">
          <mxGeometry relative="1" as="geometry">
            <Array as="points">
              <mxPoint x="595" y="190" />
              <mxPoint x="761" y="190" />
            </Array>
          </mxGeometry>
        </mxCell>
        <mxCell id="0Z7Hvn-ogQvWHSM3ic3e-70" style="edgeStyle=orthogonalEdgeStyle;rounded=0;orthogonalLoop=1;jettySize=auto;html=1;endArrow=none;endFill=0;" edge="1" parent="1" source="0Z7Hvn-ogQvWHSM3ic3e-59" target="0Z7Hvn-ogQvWHSM3ic3e-69">
          <mxGeometry relative="1" as="geometry" />
        </mxCell>
        <mxCell id="0Z7Hvn-ogQvWHSM3ic3e-59" value="LOS" style="text;html=1;align=center;verticalAlign=middle;resizable=0;points=[];autosize=1;strokeColor=none;fillColor=none;" vertex="1" parent="1">
          <mxGeometry x="625" y="218" width="50" height="30" as="geometry" />
        </mxCell>
        <mxCell id="0Z7Hvn-ogQvWHSM3ic3e-60" style="edgeStyle=orthogonalEdgeStyle;rounded=0;orthogonalLoop=1;jettySize=auto;html=1;entryX=0.497;entryY=0.012;entryDx=0;entryDy=0;entryPerimeter=0;endArrow=none;endFill=0;" edge="1" parent="1" source="0Z7Hvn-ogQvWHSM3ic3e-51" target="0Z7Hvn-ogQvWHSM3ic3e-59">
          <mxGeometry relative="1" as="geometry">
            <Array as="points">
              <mxPoint x="595" y="190" />
              <mxPoint x="650" y="190" />
            </Array>
          </mxGeometry>
        </mxCell>
        <mxCell id="0Z7Hvn-ogQvWHSM3ic3e-61" value="str" style="text;html=1;align=center;verticalAlign=middle;resizable=0;points=[];autosize=1;strokeColor=none;fillColor=none;" vertex="1" parent="1">
          <mxGeometry x="500" y="308" width="40" height="30" as="geometry" />
        </mxCell>
        <mxCell id="0Z7Hvn-ogQvWHSM3ic3e-62" value="[" style="text;html=1;align=center;verticalAlign=middle;resizable=0;points=[];autosize=1;strokeColor=none;fillColor=none;" vertex="1" parent="1">
          <mxGeometry x="520" y="308" width="30" height="30" as="geometry" />
        </mxCell>
        <mxCell id="0Z7Hvn-ogQvWHSM3ic3e-63" value="id4" style="text;html=1;align=center;verticalAlign=middle;resizable=0;points=[];autosize=1;strokeColor=none;fillColor=none;" vertex="1" parent="1">
          <mxGeometry x="530" y="308" width="40" height="30" as="geometry" />
        </mxCell>
        <mxCell id="0Z7Hvn-ogQvWHSM3ic3e-64" value="]" style="text;html=1;align=center;verticalAlign=middle;resizable=0;points=[];autosize=1;strokeColor=none;fillColor=none;" vertex="1" parent="1">
          <mxGeometry x="545" y="308" width="30" height="30" as="geometry" />
        </mxCell>
        <mxCell id="0Z7Hvn-ogQvWHSM3ic3e-66" style="edgeStyle=orthogonalEdgeStyle;rounded=0;orthogonalLoop=1;jettySize=auto;html=1;entryX=0.15;entryY=0.045;entryDx=0;entryDy=0;entryPerimeter=0;endArrow=none;endFill=0;" edge="1" parent="1" source="0Z7Hvn-ogQvWHSM3ic3e-53" target="0Z7Hvn-ogQvWHSM3ic3e-63">
          <mxGeometry relative="1" as="geometry" />
        </mxCell>
        <mxCell id="0Z7Hvn-ogQvWHSM3ic3e-67" style="edgeStyle=orthogonalEdgeStyle;rounded=0;orthogonalLoop=1;jettySize=auto;html=1;entryX=0.035;entryY=0.167;entryDx=0;entryDy=0;entryPerimeter=0;endArrow=none;endFill=0;" edge="1" parent="1" source="0Z7Hvn-ogQvWHSM3ic3e-53" target="0Z7Hvn-ogQvWHSM3ic3e-64">
          <mxGeometry relative="1" as="geometry" />
        </mxCell>
        <mxCell id="0Z7Hvn-ogQvWHSM3ic3e-68" style="edgeStyle=orthogonalEdgeStyle;rounded=0;orthogonalLoop=1;jettySize=auto;html=1;entryX=0.492;entryY=-0.031;entryDx=0;entryDy=0;entryPerimeter=0;endArrow=none;endFill=0;" edge="1" parent="1" source="0Z7Hvn-ogQvWHSM3ic3e-53" target="0Z7Hvn-ogQvWHSM3ic3e-64">
          <mxGeometry relative="1" as="geometry" />
        </mxCell>
        <mxCell id="0Z7Hvn-ogQvWHSM3ic3e-69" value="==" style="text;html=1;align=center;verticalAlign=middle;resizable=0;points=[];autosize=1;strokeColor=none;fillColor=none;" vertex="1" parent="1">
          <mxGeometry x="635" y="300" width="40" height="30" as="geometry" />
        </mxCell>
        <mxCell id="0Z7Hvn-ogQvWHSM3ic3e-71" value="const2" style="text;html=1;align=center;verticalAlign=middle;resizable=0;points=[];autosize=1;strokeColor=none;fillColor=none;" vertex="1" parent="1">
          <mxGeometry x="720" y="300" width="60" height="30" as="geometry" />
        </mxCell>
        <mxCell id="0Z7Hvn-ogQvWHSM3ic3e-72" style="edgeStyle=orthogonalEdgeStyle;rounded=0;orthogonalLoop=1;jettySize=auto;html=1;entryX=0.461;entryY=0.039;entryDx=0;entryDy=0;entryPerimeter=0;endArrow=none;endFill=0;" edge="1" parent="1" source="0Z7Hvn-ogQvWHSM3ic3e-54" target="0Z7Hvn-ogQvWHSM3ic3e-71">
          <mxGeometry relative="1" as="geometry">
            <Array as="points">
              <mxPoint x="748" y="260" />
              <mxPoint x="748" y="260" />
            </Array>
          </mxGeometry>
        </mxCell>
        <mxCell id="0Z7Hvn-ogQvWHSM3ic3e-73" style="edgeStyle=orthogonalEdgeStyle;rounded=0;orthogonalLoop=1;jettySize=auto;html=1;endArrow=none;endFill=0;" edge="1" parent="1" source="0Z7Hvn-ogQvWHSM3ic3e-74" target="0Z7Hvn-ogQvWHSM3ic3e-75">
          <mxGeometry relative="1" as="geometry" />
        </mxCell>
        <mxCell id="0Z7Hvn-ogQvWHSM3ic3e-74" value="IF" style="text;html=1;align=center;verticalAlign=middle;resizable=0;points=[];autosize=1;strokeColor=none;fillColor=none;" vertex="1" parent="1">
          <mxGeometry x="817" y="152" width="30" height="30" as="geometry" />
        </mxCell>
        <mxCell id="0Z7Hvn-ogQvWHSM3ic3e-75" value="CONDITION" style="text;html=1;align=center;verticalAlign=middle;resizable=0;points=[];autosize=1;strokeColor=none;fillColor=none;" vertex="1" parent="1">
          <mxGeometry x="787" y="202" width="90" height="30" as="geometry" />
        </mxCell>
        <mxCell id="0Z7Hvn-ogQvWHSM3ic3e-98" style="edgeStyle=orthogonalEdgeStyle;rounded=0;orthogonalLoop=1;jettySize=auto;html=1;endArrow=none;endFill=0;" edge="1" parent="1" target="0Z7Hvn-ogQvWHSM3ic3e-97">
          <mxGeometry relative="1" as="geometry">
            <mxPoint x="797.0000000000005" y="312" as="sourcePoint" />
          </mxGeometry>
        </mxCell>
        <mxCell id="0Z7Hvn-ogQvWHSM3ic3e-77" value="OPERAND" style="text;html=1;align=center;verticalAlign=middle;resizable=0;points=[];autosize=1;strokeColor=none;fillColor=none;" vertex="1" parent="1">
          <mxGeometry x="760" y="278" width="80" height="30" as="geometry" />
        </mxCell>
        <mxCell id="0Z7Hvn-ogQvWHSM3ic3e-78" value="OPERAND" style="text;html=1;align=center;verticalAlign=middle;resizable=0;points=[];autosize=1;strokeColor=none;fillColor=none;" vertex="1" parent="1">
          <mxGeometry x="957" y="278" width="80" height="30" as="geometry" />
        </mxCell>
        <mxCell id="0Z7Hvn-ogQvWHSM3ic3e-79" style="edgeStyle=orthogonalEdgeStyle;rounded=0;orthogonalLoop=1;jettySize=auto;html=1;entryX=0.503;entryY=-0.064;entryDx=0;entryDy=0;entryPerimeter=0;endArrow=none;endFill=0;" edge="1" parent="1" source="0Z7Hvn-ogQvWHSM3ic3e-75">
          <mxGeometry relative="1" as="geometry">
            <mxPoint x="797.2399999999998" y="280.0799999999999" as="targetPoint" />
          </mxGeometry>
        </mxCell>
        <mxCell id="0Z7Hvn-ogQvWHSM3ic3e-80" style="edgeStyle=orthogonalEdgeStyle;rounded=0;orthogonalLoop=1;jettySize=auto;html=1;entryX=0.516;entryY=-0.033;entryDx=0;entryDy=0;entryPerimeter=0;endArrow=none;endFill=0;" edge="1" parent="1" source="0Z7Hvn-ogQvWHSM3ic3e-75">
          <mxGeometry relative="1" as="geometry">
            <Array as="points">
              <mxPoint x="832" y="252" />
              <mxPoint x="998" y="252" />
            </Array>
            <mxPoint x="998.28" y="281.01" as="targetPoint" />
          </mxGeometry>
        </mxCell>
        <mxCell id="0Z7Hvn-ogQvWHSM3ic3e-81" style="edgeStyle=orthogonalEdgeStyle;rounded=0;orthogonalLoop=1;jettySize=auto;html=1;endArrow=none;endFill=0;" edge="1" parent="1" source="0Z7Hvn-ogQvWHSM3ic3e-82" target="0Z7Hvn-ogQvWHSM3ic3e-90">
          <mxGeometry relative="1" as="geometry" />
        </mxCell>
        <mxCell id="0Z7Hvn-ogQvWHSM3ic3e-82" value="LOS" style="text;html=1;align=center;verticalAlign=middle;resizable=0;points=[];autosize=1;strokeColor=none;fillColor=none;" vertex="1" parent="1">
          <mxGeometry x="862" y="280" width="50" height="30" as="geometry" />
        </mxCell>
        <mxCell id="0Z7Hvn-ogQvWHSM3ic3e-83" style="edgeStyle=orthogonalEdgeStyle;rounded=0;orthogonalLoop=1;jettySize=auto;html=1;entryX=0.497;entryY=0.012;entryDx=0;entryDy=0;entryPerimeter=0;endArrow=none;endFill=0;" edge="1" parent="1" source="0Z7Hvn-ogQvWHSM3ic3e-75" target="0Z7Hvn-ogQvWHSM3ic3e-82">
          <mxGeometry relative="1" as="geometry">
            <Array as="points">
              <mxPoint x="832" y="252" />
              <mxPoint x="887" y="252" />
            </Array>
          </mxGeometry>
        </mxCell>
        <mxCell id="0Z7Hvn-ogQvWHSM3ic3e-90" value="&amp;gt;" style="text;html=1;align=center;verticalAlign=middle;resizable=0;points=[];autosize=1;strokeColor=none;fillColor=none;" vertex="1" parent="1">
          <mxGeometry x="877" y="362" width="30" height="30" as="geometry" />
        </mxCell>
        <mxCell id="0Z7Hvn-ogQvWHSM3ic3e-91" value="const1" style="text;html=1;align=center;verticalAlign=middle;resizable=0;points=[];autosize=1;strokeColor=none;fillColor=none;" vertex="1" parent="1">
          <mxGeometry x="957" y="362" width="60" height="30" as="geometry" />
        </mxCell>
        <mxCell id="0Z7Hvn-ogQvWHSM3ic3e-92" style="edgeStyle=orthogonalEdgeStyle;rounded=0;orthogonalLoop=1;jettySize=auto;html=1;entryX=0.461;entryY=0.039;entryDx=0;entryDy=0;entryPerimeter=0;endArrow=none;endFill=0;" edge="1" parent="1" target="0Z7Hvn-ogQvWHSM3ic3e-91">
          <mxGeometry relative="1" as="geometry">
            <Array as="points">
              <mxPoint x="985" y="322" />
              <mxPoint x="985" y="322" />
            </Array>
            <mxPoint x="984.9655172413793" y="312" as="sourcePoint" />
          </mxGeometry>
        </mxCell>
        <mxCell id="0Z7Hvn-ogQvWHSM3ic3e-93" value="S" style="text;html=1;align=center;verticalAlign=middle;resizable=0;points=[];autosize=1;strokeColor=none;fillColor=none;" vertex="1" parent="1">
          <mxGeometry x="900" y="100" width="30" height="30" as="geometry" />
        </mxCell>
        <mxCell id="0Z7Hvn-ogQvWHSM3ic3e-94" style="edgeStyle=orthogonalEdgeStyle;rounded=0;orthogonalLoop=1;jettySize=auto;html=1;entryX=0.416;entryY=0.032;entryDx=0;entryDy=0;entryPerimeter=0;endArrow=none;endFill=0;" edge="1" parent="1" source="0Z7Hvn-ogQvWHSM3ic3e-47" target="0Z7Hvn-ogQvWHSM3ic3e-93">
          <mxGeometry relative="1" as="geometry">
            <Array as="points">
              <mxPoint x="665" y="80" />
              <mxPoint x="910" y="80" />
              <mxPoint x="910" y="101" />
            </Array>
          </mxGeometry>
        </mxCell>
        <mxCell id="0Z7Hvn-ogQvWHSM3ic3e-95" style="edgeStyle=orthogonalEdgeStyle;rounded=0;orthogonalLoop=1;jettySize=auto;html=1;entryX=0.534;entryY=0.048;entryDx=0;entryDy=0;entryPerimeter=0;endArrow=none;endFill=0;" edge="1" parent="1" source="0Z7Hvn-ogQvWHSM3ic3e-93" target="0Z7Hvn-ogQvWHSM3ic3e-74">
          <mxGeometry relative="1" as="geometry" />
        </mxCell>
        <mxCell id="0Z7Hvn-ogQvWHSM3ic3e-97" value="id4" style="text;html=1;align=center;verticalAlign=middle;resizable=0;points=[];autosize=1;strokeColor=none;fillColor=none;" vertex="1" parent="1">
          <mxGeometry x="770" y="348" width="40" height="30" as="geometry" />
        </mxCell>
        <mxCell id="0Z7Hvn-ogQvWHSM3ic3e-105" style="edgeStyle=orthogonalEdgeStyle;rounded=0;orthogonalLoop=1;jettySize=auto;html=1;endArrow=none;endFill=0;" edge="1" parent="1" source="0Z7Hvn-ogQvWHSM3ic3e-99">
          <mxGeometry relative="1" as="geometry">
            <mxPoint x="1100" y="200" as="targetPoint" />
          </mxGeometry>
        </mxCell>
        <mxCell id="0Z7Hvn-ogQvWHSM3ic3e-99" value="S" style="text;html=1;align=center;verticalAlign=middle;resizable=0;points=[];autosize=1;strokeColor=none;fillColor=none;" vertex="1" parent="1">
          <mxGeometry x="1130" y="152" width="30" height="30" as="geometry" />
        </mxCell>
        <mxCell id="0Z7Hvn-ogQvWHSM3ic3e-100" style="edgeStyle=orthogonalEdgeStyle;rounded=0;orthogonalLoop=1;jettySize=auto;html=1;entryX=0.496;entryY=-0.061;entryDx=0;entryDy=0;entryPerimeter=0;endArrow=none;endFill=0;" edge="1" parent="1" source="0Z7Hvn-ogQvWHSM3ic3e-93" target="0Z7Hvn-ogQvWHSM3ic3e-99">
          <mxGeometry relative="1" as="geometry" />
        </mxCell>
        <mxCell id="0Z7Hvn-ogQvWHSM3ic3e-106" style="edgeStyle=orthogonalEdgeStyle;rounded=0;orthogonalLoop=1;jettySize=auto;html=1;endArrow=none;endFill=0;" edge="1" parent="1" source="0Z7Hvn-ogQvWHSM3ic3e-101" target="0Z7Hvn-ogQvWHSM3ic3e-102">
          <mxGeometry relative="1" as="geometry">
            <Array as="points">
              <mxPoint x="1100" y="280" />
              <mxPoint x="1070" y="280" />
            </Array>
          </mxGeometry>
        </mxCell>
        <mxCell id="0Z7Hvn-ogQvWHSM3ic3e-101" value="OPERATION" style="text;html=1;align=center;verticalAlign=middle;resizable=0;points=[];autosize=1;strokeColor=none;fillColor=none;" vertex="1" parent="1">
          <mxGeometry x="1055" y="208" width="90" height="30" as="geometry" />
        </mxCell>
        <mxCell id="0Z7Hvn-ogQvWHSM3ic3e-111" style="edgeStyle=orthogonalEdgeStyle;rounded=0;orthogonalLoop=1;jettySize=auto;html=1;endArrow=none;endFill=0;" edge="1" parent="1" source="0Z7Hvn-ogQvWHSM3ic3e-102" target="0Z7Hvn-ogQvWHSM3ic3e-109">
          <mxGeometry relative="1" as="geometry" />
        </mxCell>
        <mxCell id="0Z7Hvn-ogQvWHSM3ic3e-102" value="OPERAND" style="text;html=1;align=center;verticalAlign=middle;resizable=0;points=[];autosize=1;strokeColor=none;fillColor=none;" vertex="1" parent="1">
          <mxGeometry x="1030" y="308" width="80" height="30" as="geometry" />
        </mxCell>
        <mxCell id="0Z7Hvn-ogQvWHSM3ic3e-112" style="edgeStyle=orthogonalEdgeStyle;rounded=0;orthogonalLoop=1;jettySize=auto;html=1;endArrow=none;endFill=0;" edge="1" parent="1" source="0Z7Hvn-ogQvWHSM3ic3e-103">
          <mxGeometry relative="1" as="geometry">
            <mxPoint x="1140" y="360" as="targetPoint" />
          </mxGeometry>
        </mxCell>
        <mxCell id="0Z7Hvn-ogQvWHSM3ic3e-103" value="OS" style="text;html=1;align=center;verticalAlign=middle;resizable=0;points=[];autosize=1;strokeColor=none;fillColor=none;" vertex="1" parent="1">
          <mxGeometry x="1120" y="308" width="40" height="30" as="geometry" />
        </mxCell>
        <mxCell id="0Z7Hvn-ogQvWHSM3ic3e-104" value="OPERAND" style="text;html=1;align=center;verticalAlign=middle;resizable=0;points=[];autosize=1;strokeColor=none;fillColor=none;" vertex="1" parent="1">
          <mxGeometry x="1160" y="308" width="80" height="30" as="geometry" />
        </mxCell>
        <mxCell id="0Z7Hvn-ogQvWHSM3ic3e-107" style="edgeStyle=orthogonalEdgeStyle;rounded=0;orthogonalLoop=1;jettySize=auto;html=1;entryX=0.484;entryY=0.03;entryDx=0;entryDy=0;entryPerimeter=0;endArrow=none;endFill=0;" edge="1" parent="1" source="0Z7Hvn-ogQvWHSM3ic3e-101" target="0Z7Hvn-ogQvWHSM3ic3e-103">
          <mxGeometry relative="1" as="geometry">
            <Array as="points">
              <mxPoint x="1100" y="280" />
              <mxPoint x="1139" y="280" />
            </Array>
          </mxGeometry>
        </mxCell>
        <mxCell id="0Z7Hvn-ogQvWHSM3ic3e-108" style="edgeStyle=orthogonalEdgeStyle;rounded=0;orthogonalLoop=1;jettySize=auto;html=1;entryX=0.514;entryY=0.075;entryDx=0;entryDy=0;entryPerimeter=0;endArrow=none;endFill=0;" edge="1" parent="1" source="0Z7Hvn-ogQvWHSM3ic3e-101" target="0Z7Hvn-ogQvWHSM3ic3e-104">
          <mxGeometry relative="1" as="geometry">
            <Array as="points">
              <mxPoint x="1100" y="280" />
              <mxPoint x="1201" y="280" />
            </Array>
          </mxGeometry>
        </mxCell>
        <mxCell id="0Z7Hvn-ogQvWHSM3ic3e-109" value="id6" style="text;html=1;align=center;verticalAlign=middle;resizable=0;points=[];autosize=1;strokeColor=none;fillColor=none;" vertex="1" parent="1">
          <mxGeometry x="1050" y="362" width="40" height="30" as="geometry" />
        </mxCell>
        <mxCell id="0Z7Hvn-ogQvWHSM3ic3e-110" value="+=" style="text;html=1;align=center;verticalAlign=middle;resizable=0;points=[];autosize=1;strokeColor=none;fillColor=none;" vertex="1" parent="1">
          <mxGeometry x="1120" y="362" width="40" height="30" as="geometry" />
        </mxCell>
        <mxCell id="0Z7Hvn-ogQvWHSM3ic3e-114" style="edgeStyle=orthogonalEdgeStyle;rounded=0;orthogonalLoop=1;jettySize=auto;html=1;entryX=0.514;entryY=-0.009;entryDx=0;entryDy=0;entryPerimeter=0;endArrow=none;endFill=0;" edge="1" parent="1" source="0Z7Hvn-ogQvWHSM3ic3e-104">
          <mxGeometry relative="1" as="geometry">
            <mxPoint x="1217.1000000000001" y="379.7299999999999" as="targetPoint" />
          </mxGeometry>
        </mxCell>
        <mxCell id="0Z7Hvn-ogQvWHSM3ic3e-116" value="FUNCTION" style="text;html=1;align=center;verticalAlign=middle;resizable=0;points=[];autosize=1;strokeColor=none;fillColor=none;" vertex="1" parent="1">
          <mxGeometry x="1171" y="378" width="90" height="30" as="geometry" />
        </mxCell>
        <mxCell id="0Z7Hvn-ogQvWHSM3ic3e-118" value="" style="edgeStyle=orthogonalEdgeStyle;rounded=0;orthogonalLoop=1;jettySize=auto;html=1;endArrow=none;endFill=0;" edge="1" parent="1" source="0Z7Hvn-ogQvWHSM3ic3e-117" target="0Z7Hvn-ogQvWHSM3ic3e-116">
          <mxGeometry relative="1" as="geometry" />
        </mxCell>
        <mxCell id="0Z7Hvn-ogQvWHSM3ic3e-117" value="toupper" style="text;html=1;align=center;verticalAlign=middle;resizable=0;points=[];autosize=1;strokeColor=none;fillColor=none;" vertex="1" parent="1">
          <mxGeometry x="1186" y="420" width="60" height="30" as="geometry" />
        </mxCell>
        <mxCell id="0Z7Hvn-ogQvWHSM3ic3e-125" style="edgeStyle=orthogonalEdgeStyle;rounded=0;orthogonalLoop=1;jettySize=auto;html=1;endArrow=none;endFill=0;" edge="1" parent="1" source="0Z7Hvn-ogQvWHSM3ic3e-120" target="0Z7Hvn-ogQvWHSM3ic3e-124">
          <mxGeometry relative="1" as="geometry" />
        </mxCell>
        <mxCell id="0Z7Hvn-ogQvWHSM3ic3e-120" value="S" style="text;html=1;align=center;verticalAlign=middle;resizable=0;points=[];autosize=1;strokeColor=none;fillColor=none;" vertex="1" parent="1">
          <mxGeometry x="1340" y="208" width="30" height="30" as="geometry" />
        </mxCell>
        <mxCell id="0Z7Hvn-ogQvWHSM3ic3e-121" style="edgeStyle=orthogonalEdgeStyle;rounded=0;orthogonalLoop=1;jettySize=auto;html=1;entryX=0.544;entryY=-0.039;entryDx=0;entryDy=0;entryPerimeter=0;endArrow=none;endFill=0;" edge="1" parent="1" source="0Z7Hvn-ogQvWHSM3ic3e-99" target="0Z7Hvn-ogQvWHSM3ic3e-120">
          <mxGeometry relative="1" as="geometry" />
        </mxCell>
        <mxCell id="0Z7Hvn-ogQvWHSM3ic3e-122" value="ELSE" style="text;html=1;align=center;verticalAlign=middle;resizable=0;points=[];autosize=1;strokeColor=none;fillColor=none;" vertex="1" parent="1">
          <mxGeometry x="1285" y="268" width="50" height="30" as="geometry" />
        </mxCell>
        <mxCell id="0Z7Hvn-ogQvWHSM3ic3e-123" style="edgeStyle=orthogonalEdgeStyle;rounded=0;orthogonalLoop=1;jettySize=auto;html=1;entryX=0.493;entryY=0.006;entryDx=0;entryDy=0;entryPerimeter=0;endArrow=none;endFill=0;" edge="1" parent="1" source="0Z7Hvn-ogQvWHSM3ic3e-120" target="0Z7Hvn-ogQvWHSM3ic3e-122">
          <mxGeometry relative="1" as="geometry" />
        </mxCell>
        <mxCell id="0Z7Hvn-ogQvWHSM3ic3e-124" value="S" style="text;html=1;align=center;verticalAlign=middle;resizable=0;points=[];autosize=1;strokeColor=none;fillColor=none;" vertex="1" parent="1">
          <mxGeometry x="1435" y="268" width="30" height="30" as="geometry" />
        </mxCell>
        <mxCell id="0Z7Hvn-ogQvWHSM3ic3e-126" style="edgeStyle=orthogonalEdgeStyle;rounded=0;orthogonalLoop=1;jettySize=auto;html=1;endArrow=none;endFill=0;" edge="1" parent="1" source="0Z7Hvn-ogQvWHSM3ic3e-127" target="0Z7Hvn-ogQvWHSM3ic3e-129">
          <mxGeometry relative="1" as="geometry">
            <Array as="points">
              <mxPoint x="1380" y="392" />
              <mxPoint x="1350" y="392" />
            </Array>
          </mxGeometry>
        </mxCell>
        <mxCell id="0Z7Hvn-ogQvWHSM3ic3e-127" value="OPERATION" style="text;html=1;align=center;verticalAlign=middle;resizable=0;points=[];autosize=1;strokeColor=none;fillColor=none;" vertex="1" parent="1">
          <mxGeometry x="1335" y="320" width="90" height="30" as="geometry" />
        </mxCell>
        <mxCell id="0Z7Hvn-ogQvWHSM3ic3e-128" style="edgeStyle=orthogonalEdgeStyle;rounded=0;orthogonalLoop=1;jettySize=auto;html=1;endArrow=none;endFill=0;" edge="1" parent="1" source="0Z7Hvn-ogQvWHSM3ic3e-129" target="0Z7Hvn-ogQvWHSM3ic3e-135">
          <mxGeometry relative="1" as="geometry" />
        </mxCell>
        <mxCell id="0Z7Hvn-ogQvWHSM3ic3e-129" value="OPERAND" style="text;html=1;align=center;verticalAlign=middle;resizable=0;points=[];autosize=1;strokeColor=none;fillColor=none;" vertex="1" parent="1">
          <mxGeometry x="1310" y="420" width="80" height="30" as="geometry" />
        </mxCell>
        <mxCell id="0Z7Hvn-ogQvWHSM3ic3e-130" style="edgeStyle=orthogonalEdgeStyle;rounded=0;orthogonalLoop=1;jettySize=auto;html=1;endArrow=none;endFill=0;" edge="1" parent="1" source="0Z7Hvn-ogQvWHSM3ic3e-131">
          <mxGeometry relative="1" as="geometry">
            <mxPoint x="1420" y="472" as="targetPoint" />
          </mxGeometry>
        </mxCell>
        <mxCell id="0Z7Hvn-ogQvWHSM3ic3e-131" value="OS" style="text;html=1;align=center;verticalAlign=middle;resizable=0;points=[];autosize=1;strokeColor=none;fillColor=none;" vertex="1" parent="1">
          <mxGeometry x="1400" y="420" width="40" height="30" as="geometry" />
        </mxCell>
        <mxCell id="0Z7Hvn-ogQvWHSM3ic3e-142" style="edgeStyle=orthogonalEdgeStyle;rounded=0;orthogonalLoop=1;jettySize=auto;html=1;endArrow=none;endFill=0;" edge="1" parent="1" source="0Z7Hvn-ogQvWHSM3ic3e-132" target="0Z7Hvn-ogQvWHSM3ic3e-141">
          <mxGeometry relative="1" as="geometry" />
        </mxCell>
        <mxCell id="0Z7Hvn-ogQvWHSM3ic3e-132" value="OPERAND" style="text;html=1;align=center;verticalAlign=middle;resizable=0;points=[];autosize=1;strokeColor=none;fillColor=none;" vertex="1" parent="1">
          <mxGeometry x="1440" y="420" width="80" height="30" as="geometry" />
        </mxCell>
        <mxCell id="0Z7Hvn-ogQvWHSM3ic3e-133" style="edgeStyle=orthogonalEdgeStyle;rounded=0;orthogonalLoop=1;jettySize=auto;html=1;entryX=0.484;entryY=0.03;entryDx=0;entryDy=0;entryPerimeter=0;endArrow=none;endFill=0;" edge="1" parent="1" source="0Z7Hvn-ogQvWHSM3ic3e-127" target="0Z7Hvn-ogQvWHSM3ic3e-131">
          <mxGeometry relative="1" as="geometry">
            <Array as="points">
              <mxPoint x="1380" y="392" />
              <mxPoint x="1419" y="392" />
            </Array>
          </mxGeometry>
        </mxCell>
        <mxCell id="0Z7Hvn-ogQvWHSM3ic3e-134" style="edgeStyle=orthogonalEdgeStyle;rounded=0;orthogonalLoop=1;jettySize=auto;html=1;entryX=0.514;entryY=0.075;entryDx=0;entryDy=0;entryPerimeter=0;endArrow=none;endFill=0;" edge="1" parent="1" source="0Z7Hvn-ogQvWHSM3ic3e-127" target="0Z7Hvn-ogQvWHSM3ic3e-132">
          <mxGeometry relative="1" as="geometry">
            <Array as="points">
              <mxPoint x="1380" y="392" />
              <mxPoint x="1481" y="392" />
            </Array>
          </mxGeometry>
        </mxCell>
        <mxCell id="0Z7Hvn-ogQvWHSM3ic3e-135" value="id6" style="text;html=1;align=center;verticalAlign=middle;resizable=0;points=[];autosize=1;strokeColor=none;fillColor=none;" vertex="1" parent="1">
          <mxGeometry x="1330" y="474" width="40" height="30" as="geometry" />
        </mxCell>
        <mxCell id="0Z7Hvn-ogQvWHSM3ic3e-136" value="+=" style="text;html=1;align=center;verticalAlign=middle;resizable=0;points=[];autosize=1;strokeColor=none;fillColor=none;" vertex="1" parent="1">
          <mxGeometry x="1400" y="474" width="40" height="30" as="geometry" />
        </mxCell>
        <mxCell id="0Z7Hvn-ogQvWHSM3ic3e-140" style="edgeStyle=orthogonalEdgeStyle;rounded=0;orthogonalLoop=1;jettySize=auto;html=1;entryX=0.489;entryY=0.05;entryDx=0;entryDy=0;entryPerimeter=0;endArrow=none;endFill=0;" edge="1" parent="1" source="0Z7Hvn-ogQvWHSM3ic3e-124" target="0Z7Hvn-ogQvWHSM3ic3e-127">
          <mxGeometry relative="1" as="geometry" />
        </mxCell>
        <mxCell id="0Z7Hvn-ogQvWHSM3ic3e-141" value="id5" style="text;html=1;align=center;verticalAlign=middle;resizable=0;points=[];autosize=1;strokeColor=none;fillColor=none;" vertex="1" parent="1">
          <mxGeometry x="1435" y="504" width="40" height="30" as="geometry" />
        </mxCell>
        <mxCell id="0Z7Hvn-ogQvWHSM3ic3e-143" value="[" style="text;html=1;align=center;verticalAlign=middle;resizable=0;points=[];autosize=1;strokeColor=none;fillColor=none;" vertex="1" parent="1">
          <mxGeometry x="1465" y="504" width="30" height="30" as="geometry" />
        </mxCell>
        <mxCell id="0Z7Hvn-ogQvWHSM3ic3e-144" style="edgeStyle=orthogonalEdgeStyle;rounded=0;orthogonalLoop=1;jettySize=auto;html=1;entryX=0.5;entryY=0.2;entryDx=0;entryDy=0;entryPerimeter=0;endArrow=none;endFill=0;" edge="1" parent="1" source="0Z7Hvn-ogQvWHSM3ic3e-132" target="0Z7Hvn-ogQvWHSM3ic3e-143">
          <mxGeometry relative="1" as="geometry" />
        </mxCell>
        <mxCell id="0Z7Hvn-ogQvWHSM3ic3e-145" value="id4" style="text;html=1;align=center;verticalAlign=middle;resizable=0;points=[];autosize=1;strokeColor=none;fillColor=none;" vertex="1" parent="1">
          <mxGeometry x="1475" y="504" width="40" height="30" as="geometry" />
        </mxCell>
        <mxCell id="0Z7Hvn-ogQvWHSM3ic3e-146" value="]" style="text;html=1;align=center;verticalAlign=middle;resizable=0;points=[];autosize=1;strokeColor=none;fillColor=none;" vertex="1" parent="1">
          <mxGeometry x="1495" y="504" width="30" height="30" as="geometry" />
        </mxCell>
        <mxCell id="0Z7Hvn-ogQvWHSM3ic3e-147" style="edgeStyle=orthogonalEdgeStyle;rounded=0;orthogonalLoop=1;jettySize=auto;html=1;entryX=-0.156;entryY=0.139;entryDx=0;entryDy=0;entryPerimeter=0;endArrow=none;endFill=0;" edge="1" parent="1" source="0Z7Hvn-ogQvWHSM3ic3e-132" target="0Z7Hvn-ogQvWHSM3ic3e-146">
          <mxGeometry relative="1" as="geometry" />
        </mxCell>
        <mxCell id="0Z7Hvn-ogQvWHSM3ic3e-148" style="edgeStyle=orthogonalEdgeStyle;rounded=0;orthogonalLoop=1;jettySize=auto;html=1;entryX=0.467;entryY=0.006;entryDx=0;entryDy=0;entryPerimeter=0;endArrow=none;endFill=0;" edge="1" parent="1" source="0Z7Hvn-ogQvWHSM3ic3e-132" target="0Z7Hvn-ogQvWHSM3ic3e-146">
          <mxGeometry relative="1" as="geometry" />
        </mxCell>
        <mxCell id="0Z7Hvn-ogQvWHSM3ic3e-149" value=";" style="text;html=1;align=center;verticalAlign=middle;resizable=0;points=[];autosize=1;strokeColor=none;fillColor=none;fontSize=14;" vertex="1" parent="1">
          <mxGeometry x="1875" y="354" width="30" height="30" as="geometry" />
        </mxCell>
        <mxCell id="0Z7Hvn-ogQvWHSM3ic3e-150" style="edgeStyle=orthogonalEdgeStyle;rounded=0;orthogonalLoop=1;jettySize=auto;html=1;endArrow=none;endFill=0;" edge="1" parent="1" source="0Z7Hvn-ogQvWHSM3ic3e-152" target="0Z7Hvn-ogQvWHSM3ic3e-154">
          <mxGeometry relative="1" as="geometry">
            <Array as="points">
              <mxPoint x="1815" y="394" />
              <mxPoint x="1690" y="394" />
            </Array>
          </mxGeometry>
        </mxCell>
        <mxCell id="0Z7Hvn-ogQvWHSM3ic3e-151" style="edgeStyle=orthogonalEdgeStyle;rounded=0;orthogonalLoop=1;jettySize=auto;html=1;endArrow=none;endFill=0;" edge="1" parent="1" source="0Z7Hvn-ogQvWHSM3ic3e-152" target="0Z7Hvn-ogQvWHSM3ic3e-159">
          <mxGeometry relative="1" as="geometry">
            <Array as="points">
              <mxPoint x="1815" y="394" />
              <mxPoint x="1890" y="394" />
            </Array>
          </mxGeometry>
        </mxCell>
        <mxCell id="0Z7Hvn-ogQvWHSM3ic3e-152" value="FOR" style="text;html=1;align=center;verticalAlign=middle;resizable=0;points=[];autosize=1;strokeColor=none;fillColor=none;" vertex="1" parent="1">
          <mxGeometry x="1790" y="354" width="50" height="30" as="geometry" />
        </mxCell>
        <mxCell id="0Z7Hvn-ogQvWHSM3ic3e-153" style="edgeStyle=orthogonalEdgeStyle;rounded=0;orthogonalLoop=1;jettySize=auto;html=1;endArrow=none;endFill=0;" edge="1" parent="1" source="0Z7Hvn-ogQvWHSM3ic3e-154" target="0Z7Hvn-ogQvWHSM3ic3e-161">
          <mxGeometry relative="1" as="geometry">
            <Array as="points">
              <mxPoint x="1690" y="444" />
              <mxPoint x="1555" y="444" />
            </Array>
          </mxGeometry>
        </mxCell>
        <mxCell id="0Z7Hvn-ogQvWHSM3ic3e-154" value="NV" style="text;html=1;align=center;verticalAlign=middle;resizable=0;points=[];autosize=1;strokeColor=none;fillColor=none;" vertex="1" parent="1">
          <mxGeometry x="1670" y="404" width="40" height="30" as="geometry" />
        </mxCell>
        <mxCell id="0Z7Hvn-ogQvWHSM3ic3e-155" style="edgeStyle=orthogonalEdgeStyle;rounded=0;orthogonalLoop=1;jettySize=auto;html=1;endArrow=none;endFill=0;" edge="1" parent="1" source="0Z7Hvn-ogQvWHSM3ic3e-158" target="0Z7Hvn-ogQvWHSM3ic3e-169">
          <mxGeometry relative="1" as="geometry">
            <Array as="points">
              <mxPoint x="1785" y="474" />
              <mxPoint x="1725" y="474" />
            </Array>
          </mxGeometry>
        </mxCell>
        <mxCell id="0Z7Hvn-ogQvWHSM3ic3e-156" style="edgeStyle=orthogonalEdgeStyle;rounded=0;orthogonalLoop=1;jettySize=auto;html=1;endArrow=none;endFill=0;" edge="1" parent="1" source="0Z7Hvn-ogQvWHSM3ic3e-158" target="0Z7Hvn-ogQvWHSM3ic3e-172">
          <mxGeometry relative="1" as="geometry">
            <Array as="points">
              <mxPoint x="1785" y="464" />
              <mxPoint x="1785" y="464" />
            </Array>
          </mxGeometry>
        </mxCell>
        <mxCell id="0Z7Hvn-ogQvWHSM3ic3e-157" style="edgeStyle=orthogonalEdgeStyle;rounded=0;orthogonalLoop=1;jettySize=auto;html=1;endArrow=none;endFill=0;" edge="1" parent="1" source="0Z7Hvn-ogQvWHSM3ic3e-158" target="0Z7Hvn-ogQvWHSM3ic3e-170">
          <mxGeometry relative="1" as="geometry">
            <Array as="points">
              <mxPoint x="1785" y="474" />
              <mxPoint x="1840" y="474" />
            </Array>
          </mxGeometry>
        </mxCell>
        <mxCell id="0Z7Hvn-ogQvWHSM3ic3e-158" value="CONDITION" style="text;html=1;align=center;verticalAlign=middle;resizable=0;points=[];autosize=1;strokeColor=none;fillColor=none;" vertex="1" parent="1">
          <mxGeometry x="1740" y="404" width="90" height="30" as="geometry" />
        </mxCell>
        <mxCell id="0Z7Hvn-ogQvWHSM3ic3e-159" value="OPERATION" style="text;html=1;align=center;verticalAlign=middle;resizable=0;points=[];autosize=1;strokeColor=none;fillColor=none;" vertex="1" parent="1">
          <mxGeometry x="1845" y="404" width="90" height="30" as="geometry" />
        </mxCell>
        <mxCell id="0Z7Hvn-ogQvWHSM3ic3e-160" style="edgeStyle=orthogonalEdgeStyle;rounded=0;orthogonalLoop=1;jettySize=auto;html=1;entryX=0.556;entryY=0.043;entryDx=0;entryDy=0;entryPerimeter=0;endArrow=none;endFill=0;" edge="1" parent="1" target="0Z7Hvn-ogQvWHSM3ic3e-158">
          <mxGeometry relative="1" as="geometry">
            <Array as="points">
              <mxPoint x="1790" y="394" />
            </Array>
            <mxPoint x="1800" y="394" as="sourcePoint" />
          </mxGeometry>
        </mxCell>
        <mxCell id="0Z7Hvn-ogQvWHSM3ic3e-161" value="TYPE" style="text;html=1;align=center;verticalAlign=middle;resizable=0;points=[];autosize=1;strokeColor=none;fillColor=none;" vertex="1" parent="1">
          <mxGeometry x="1530" y="456" width="50" height="30" as="geometry" />
        </mxCell>
        <mxCell id="0Z7Hvn-ogQvWHSM3ic3e-162" value="id3" style="text;html=1;align=center;verticalAlign=middle;resizable=0;points=[];autosize=1;strokeColor=none;fillColor=none;" vertex="1" parent="1">
          <mxGeometry x="1590" y="456" width="40" height="30" as="geometry" />
        </mxCell>
        <mxCell id="0Z7Hvn-ogQvWHSM3ic3e-163" value="=" style="text;html=1;align=center;verticalAlign=middle;resizable=0;points=[];autosize=1;strokeColor=none;fillColor=none;" vertex="1" parent="1">
          <mxGeometry x="1640" y="456" width="30" height="30" as="geometry" />
        </mxCell>
        <mxCell id="0Z7Hvn-ogQvWHSM3ic3e-164" value="const1" style="text;html=1;align=center;verticalAlign=middle;resizable=0;points=[];autosize=1;strokeColor=none;fillColor=none;" vertex="1" parent="1">
          <mxGeometry x="1670" y="456" width="60" height="30" as="geometry" />
        </mxCell>
        <mxCell id="0Z7Hvn-ogQvWHSM3ic3e-165" style="edgeStyle=orthogonalEdgeStyle;rounded=0;orthogonalLoop=1;jettySize=auto;html=1;entryX=0.5;entryY=0.267;entryDx=0;entryDy=0;entryPerimeter=0;endArrow=none;endFill=0;" edge="1" parent="1" source="0Z7Hvn-ogQvWHSM3ic3e-154" target="0Z7Hvn-ogQvWHSM3ic3e-164">
          <mxGeometry relative="1" as="geometry">
            <Array as="points">
              <mxPoint x="1690" y="444" />
              <mxPoint x="1700" y="444" />
            </Array>
          </mxGeometry>
        </mxCell>
        <mxCell id="0Z7Hvn-ogQvWHSM3ic3e-166" style="edgeStyle=orthogonalEdgeStyle;rounded=0;orthogonalLoop=1;jettySize=auto;html=1;entryX=0.474;entryY=0.018;entryDx=0;entryDy=0;entryPerimeter=0;endArrow=none;endFill=0;" edge="1" parent="1" source="0Z7Hvn-ogQvWHSM3ic3e-154" target="0Z7Hvn-ogQvWHSM3ic3e-163">
          <mxGeometry relative="1" as="geometry">
            <Array as="points">
              <mxPoint x="1690" y="444" />
              <mxPoint x="1654" y="444" />
            </Array>
          </mxGeometry>
        </mxCell>
        <mxCell id="0Z7Hvn-ogQvWHSM3ic3e-167" style="edgeStyle=orthogonalEdgeStyle;rounded=0;orthogonalLoop=1;jettySize=auto;html=1;entryX=0.531;entryY=0.033;entryDx=0;entryDy=0;entryPerimeter=0;endArrow=none;endFill=0;" edge="1" parent="1" source="0Z7Hvn-ogQvWHSM3ic3e-154" target="0Z7Hvn-ogQvWHSM3ic3e-162">
          <mxGeometry relative="1" as="geometry">
            <Array as="points">
              <mxPoint x="1690" y="444" />
              <mxPoint x="1611" y="444" />
            </Array>
          </mxGeometry>
        </mxCell>
        <mxCell id="0Z7Hvn-ogQvWHSM3ic3e-168" style="edgeStyle=orthogonalEdgeStyle;rounded=0;orthogonalLoop=1;jettySize=auto;html=1;endArrow=none;endFill=0;" edge="1" parent="1" source="0Z7Hvn-ogQvWHSM3ic3e-169" target="0Z7Hvn-ogQvWHSM3ic3e-173">
          <mxGeometry relative="1" as="geometry" />
        </mxCell>
        <mxCell id="0Z7Hvn-ogQvWHSM3ic3e-169" value="OPERAND" style="text;html=1;align=center;verticalAlign=middle;resizable=0;points=[];autosize=1;strokeColor=none;fillColor=none;" vertex="1" parent="1">
          <mxGeometry x="1690" y="494" width="80" height="30" as="geometry" />
        </mxCell>
        <mxCell id="0Z7Hvn-ogQvWHSM3ic3e-170" value="OPERAND" style="text;html=1;align=center;verticalAlign=middle;resizable=0;points=[];autosize=1;strokeColor=none;fillColor=none;" vertex="1" parent="1">
          <mxGeometry x="1795" y="494" width="80" height="30" as="geometry" />
        </mxCell>
        <mxCell id="0Z7Hvn-ogQvWHSM3ic3e-171" style="edgeStyle=orthogonalEdgeStyle;rounded=0;orthogonalLoop=1;jettySize=auto;html=1;endArrow=none;endFill=0;" edge="1" parent="1" source="0Z7Hvn-ogQvWHSM3ic3e-172" target="0Z7Hvn-ogQvWHSM3ic3e-174">
          <mxGeometry relative="1" as="geometry" />
        </mxCell>
        <mxCell id="0Z7Hvn-ogQvWHSM3ic3e-172" value="LOS" style="text;html=1;align=center;verticalAlign=middle;resizable=0;points=[];autosize=1;strokeColor=none;fillColor=none;" vertex="1" parent="1">
          <mxGeometry x="1760" y="494" width="50" height="30" as="geometry" />
        </mxCell>
        <mxCell id="0Z7Hvn-ogQvWHSM3ic3e-173" value="id3" style="text;html=1;align=center;verticalAlign=middle;resizable=0;points=[];autosize=1;strokeColor=none;fillColor=none;" vertex="1" parent="1">
          <mxGeometry x="1710" y="544" width="40" height="30" as="geometry" />
        </mxCell>
        <mxCell id="0Z7Hvn-ogQvWHSM3ic3e-174" value="&amp;lt;" style="text;html=1;align=center;verticalAlign=middle;resizable=0;points=[];autosize=1;strokeColor=none;fillColor=none;" vertex="1" parent="1">
          <mxGeometry x="1770" y="544" width="30" height="30" as="geometry" />
        </mxCell>
        <mxCell id="0Z7Hvn-ogQvWHSM3ic3e-175" value="OPERAND.FUNCTION" style="text;html=1;align=center;verticalAlign=middle;resizable=0;points=[];autosize=1;strokeColor=none;fillColor=none;" vertex="1" parent="1">
          <mxGeometry x="1774" y="564" width="150" height="30" as="geometry" />
        </mxCell>
        <mxCell id="0Z7Hvn-ogQvWHSM3ic3e-176" style="edgeStyle=orthogonalEdgeStyle;rounded=0;orthogonalLoop=1;jettySize=auto;html=1;entryX=0.542;entryY=-0.077;entryDx=0;entryDy=0;entryPerimeter=0;endArrow=none;endFill=0;" edge="1" parent="1" source="0Z7Hvn-ogQvWHSM3ic3e-170" target="0Z7Hvn-ogQvWHSM3ic3e-175">
          <mxGeometry relative="1" as="geometry" />
        </mxCell>
        <mxCell id="0Z7Hvn-ogQvWHSM3ic3e-177" value="OPERAND" style="text;html=1;align=center;verticalAlign=middle;resizable=0;points=[];autosize=1;strokeColor=none;fillColor=none;" vertex="1" parent="1">
          <mxGeometry x="1730" y="612" width="80" height="30" as="geometry" />
        </mxCell>
        <mxCell id="0Z7Hvn-ogQvWHSM3ic3e-178" style="edgeStyle=orthogonalEdgeStyle;rounded=0;orthogonalLoop=1;jettySize=auto;html=1;endArrow=none;endFill=0;" edge="1" parent="1" source="0Z7Hvn-ogQvWHSM3ic3e-179" target="0Z7Hvn-ogQvWHSM3ic3e-184">
          <mxGeometry relative="1" as="geometry" />
        </mxCell>
        <mxCell id="0Z7Hvn-ogQvWHSM3ic3e-179" value="FUNCTION" style="text;html=1;align=center;verticalAlign=middle;resizable=0;points=[];autosize=1;strokeColor=none;fillColor=none;" vertex="1" parent="1">
          <mxGeometry x="1865" y="612" width="90" height="30" as="geometry" />
        </mxCell>
        <mxCell id="0Z7Hvn-ogQvWHSM3ic3e-180" style="edgeStyle=orthogonalEdgeStyle;rounded=0;orthogonalLoop=1;jettySize=auto;html=1;entryX=0.527;entryY=0.014;entryDx=0;entryDy=0;entryPerimeter=0;endArrow=none;endFill=0;" edge="1" parent="1" source="0Z7Hvn-ogQvWHSM3ic3e-175" target="0Z7Hvn-ogQvWHSM3ic3e-177">
          <mxGeometry relative="1" as="geometry">
            <Array as="points">
              <mxPoint x="1849" y="604" />
              <mxPoint x="1772" y="604" />
            </Array>
          </mxGeometry>
        </mxCell>
        <mxCell id="0Z7Hvn-ogQvWHSM3ic3e-181" style="edgeStyle=orthogonalEdgeStyle;rounded=0;orthogonalLoop=1;jettySize=auto;html=1;entryX=0.5;entryY=0.067;entryDx=0;entryDy=0;entryPerimeter=0;endArrow=none;endFill=0;" edge="1" parent="1" source="0Z7Hvn-ogQvWHSM3ic3e-175" target="0Z7Hvn-ogQvWHSM3ic3e-179">
          <mxGeometry relative="1" as="geometry">
            <Array as="points">
              <mxPoint x="1849" y="604" />
              <mxPoint x="1910" y="604" />
            </Array>
          </mxGeometry>
        </mxCell>
        <mxCell id="0Z7Hvn-ogQvWHSM3ic3e-182" value="id2" style="text;html=1;align=center;verticalAlign=middle;resizable=0;points=[];autosize=1;strokeColor=none;fillColor=none;" vertex="1" parent="1">
          <mxGeometry x="1750" y="654" width="40" height="30" as="geometry" />
        </mxCell>
        <mxCell id="0Z7Hvn-ogQvWHSM3ic3e-183" style="edgeStyle=orthogonalEdgeStyle;rounded=0;orthogonalLoop=1;jettySize=auto;html=1;endArrow=none;endFill=0;" edge="1" parent="1" source="0Z7Hvn-ogQvWHSM3ic3e-177">
          <mxGeometry relative="1" as="geometry">
            <mxPoint x="1770" y="664" as="targetPoint" />
          </mxGeometry>
        </mxCell>
        <mxCell id="0Z7Hvn-ogQvWHSM3ic3e-184" value="length()" style="text;html=1;align=center;verticalAlign=middle;resizable=0;points=[];autosize=1;strokeColor=none;fillColor=none;" vertex="1" parent="1">
          <mxGeometry x="1880" y="652" width="60" height="30" as="geometry" />
        </mxCell>
        <mxCell id="0Z7Hvn-ogQvWHSM3ic3e-185" style="edgeStyle=orthogonalEdgeStyle;rounded=0;orthogonalLoop=1;jettySize=auto;html=1;endArrow=none;endFill=0;" edge="1" parent="1">
          <mxGeometry relative="1" as="geometry">
            <mxPoint x="2000" y="544" as="sourcePoint" />
            <mxPoint x="2000" y="574" as="targetPoint" />
          </mxGeometry>
        </mxCell>
        <mxCell id="0Z7Hvn-ogQvWHSM3ic3e-186" value="OPERAND" style="text;html=1;align=center;verticalAlign=middle;resizable=0;points=[];autosize=1;strokeColor=none;fillColor=none;" vertex="1" parent="1">
          <mxGeometry x="1870" y="514" width="80" height="30" as="geometry" />
        </mxCell>
        <mxCell id="0Z7Hvn-ogQvWHSM3ic3e-187" style="edgeStyle=orthogonalEdgeStyle;rounded=0;orthogonalLoop=1;jettySize=auto;html=1;entryX=0.475;entryY=0.04;entryDx=0;entryDy=0;entryPerimeter=0;endArrow=none;endFill=0;" edge="1" parent="1" source="0Z7Hvn-ogQvWHSM3ic3e-159" target="0Z7Hvn-ogQvWHSM3ic3e-186">
          <mxGeometry relative="1" as="geometry" />
        </mxCell>
        <mxCell id="0Z7Hvn-ogQvWHSM3ic3e-188" style="edgeStyle=orthogonalEdgeStyle;rounded=0;orthogonalLoop=1;jettySize=auto;html=1;entryX=0.5;entryY=-0.067;entryDx=0;entryDy=0;entryPerimeter=0;endArrow=none;endFill=0;" edge="1" parent="1" source="0Z7Hvn-ogQvWHSM3ic3e-159">
          <mxGeometry relative="1" as="geometry">
            <mxPoint x="2000" y="512" as="targetPoint" />
            <Array as="points">
              <mxPoint x="1890" y="474" />
              <mxPoint x="2000" y="474" />
            </Array>
          </mxGeometry>
        </mxCell>
        <mxCell id="0Z7Hvn-ogQvWHSM3ic3e-189" value="id3" style="text;html=1;align=center;verticalAlign=middle;resizable=0;points=[];autosize=1;strokeColor=none;fillColor=none;" vertex="1" parent="1">
          <mxGeometry x="1930" y="564" width="40" height="30" as="geometry" />
        </mxCell>
        <mxCell id="0Z7Hvn-ogQvWHSM3ic3e-190" style="edgeStyle=orthogonalEdgeStyle;rounded=0;orthogonalLoop=1;jettySize=auto;html=1;entryX=0.49;entryY=0.027;entryDx=0;entryDy=0;entryPerimeter=0;endArrow=none;endFill=0;" edge="1" parent="1" source="0Z7Hvn-ogQvWHSM3ic3e-186" target="0Z7Hvn-ogQvWHSM3ic3e-189">
          <mxGeometry relative="1" as="geometry">
            <Array as="points">
              <mxPoint x="1910" y="553" />
            </Array>
          </mxGeometry>
        </mxCell>
        <mxCell id="0Z7Hvn-ogQvWHSM3ic3e-234" style="edgeStyle=orthogonalEdgeStyle;rounded=0;orthogonalLoop=1;jettySize=auto;html=1;endArrow=none;endFill=0;" edge="1" parent="1" source="0Z7Hvn-ogQvWHSM3ic3e-191" target="0Z7Hvn-ogQvWHSM3ic3e-213">
          <mxGeometry relative="1" as="geometry" />
        </mxCell>
        <mxCell id="0Z7Hvn-ogQvWHSM3ic3e-191" value="S" style="text;html=1;align=center;verticalAlign=middle;resizable=0;points=[];autosize=1;strokeColor=none;fillColor=none;" vertex="1" parent="1">
          <mxGeometry x="1930" y="308" width="30" height="30" as="geometry" />
        </mxCell>
        <mxCell id="0Z7Hvn-ogQvWHSM3ic3e-192" style="edgeStyle=orthogonalEdgeStyle;rounded=0;orthogonalLoop=1;jettySize=auto;html=1;entryX=0.539;entryY=0.022;entryDx=0;entryDy=0;entryPerimeter=0;endArrow=none;endFill=0;" edge="1" parent="1" source="0Z7Hvn-ogQvWHSM3ic3e-124" target="0Z7Hvn-ogQvWHSM3ic3e-191">
          <mxGeometry relative="1" as="geometry" />
        </mxCell>
        <mxCell id="0Z7Hvn-ogQvWHSM3ic3e-193" style="edgeStyle=orthogonalEdgeStyle;rounded=0;orthogonalLoop=1;jettySize=auto;html=1;entryX=0.498;entryY=0.032;entryDx=0;entryDy=0;entryPerimeter=0;endArrow=none;endFill=0;" edge="1" parent="1" source="0Z7Hvn-ogQvWHSM3ic3e-191" target="0Z7Hvn-ogQvWHSM3ic3e-152">
          <mxGeometry relative="1" as="geometry" />
        </mxCell>
        <mxCell id="0Z7Hvn-ogQvWHSM3ic3e-194" style="edgeStyle=orthogonalEdgeStyle;rounded=0;orthogonalLoop=1;jettySize=auto;html=1;entryX=0.513;entryY=0.032;entryDx=0;entryDy=0;entryPerimeter=0;endArrow=none;endFill=0;" edge="1" parent="1" source="0Z7Hvn-ogQvWHSM3ic3e-191" target="0Z7Hvn-ogQvWHSM3ic3e-149">
          <mxGeometry relative="1" as="geometry" />
        </mxCell>
        <mxCell id="0Z7Hvn-ogQvWHSM3ic3e-196" style="edgeStyle=orthogonalEdgeStyle;rounded=0;orthogonalLoop=1;jettySize=auto;html=1;endArrow=none;endFill=0;" edge="1" parent="1" source="0Z7Hvn-ogQvWHSM3ic3e-197" target="0Z7Hvn-ogQvWHSM3ic3e-198">
          <mxGeometry relative="1" as="geometry" />
        </mxCell>
        <mxCell id="0Z7Hvn-ogQvWHSM3ic3e-197" value="OS" style="text;html=1;align=center;verticalAlign=middle;resizable=0;points=[];autosize=1;strokeColor=none;fillColor=none;" vertex="1" parent="1">
          <mxGeometry x="1980" y="514" width="40" height="30" as="geometry" />
        </mxCell>
        <mxCell id="0Z7Hvn-ogQvWHSM3ic3e-198" value="++" style="text;html=1;align=center;verticalAlign=middle;resizable=0;points=[];autosize=1;strokeColor=none;fillColor=none;" vertex="1" parent="1">
          <mxGeometry x="1980" y="574" width="40" height="30" as="geometry" />
        </mxCell>
        <mxCell id="0Z7Hvn-ogQvWHSM3ic3e-199" style="edgeStyle=orthogonalEdgeStyle;rounded=0;orthogonalLoop=1;jettySize=auto;html=1;endArrow=none;endFill=0;" edge="1" parent="1" source="0Z7Hvn-ogQvWHSM3ic3e-200" target="0Z7Hvn-ogQvWHSM3ic3e-201">
          <mxGeometry relative="1" as="geometry" />
        </mxCell>
        <mxCell id="0Z7Hvn-ogQvWHSM3ic3e-200" value="IF" style="text;html=1;align=center;verticalAlign=middle;resizable=0;points=[];autosize=1;strokeColor=none;fillColor=none;" vertex="1" parent="1">
          <mxGeometry x="2067" y="422" width="30" height="30" as="geometry" />
        </mxCell>
        <mxCell id="0Z7Hvn-ogQvWHSM3ic3e-201" value="CONDITION" style="text;html=1;align=center;verticalAlign=middle;resizable=0;points=[];autosize=1;strokeColor=none;fillColor=none;" vertex="1" parent="1">
          <mxGeometry x="2037" y="472" width="90" height="30" as="geometry" />
        </mxCell>
        <mxCell id="0Z7Hvn-ogQvWHSM3ic3e-202" style="edgeStyle=orthogonalEdgeStyle;rounded=0;orthogonalLoop=1;jettySize=auto;html=1;endArrow=none;endFill=0;" edge="1" parent="1" target="0Z7Hvn-ogQvWHSM3ic3e-215">
          <mxGeometry relative="1" as="geometry">
            <mxPoint x="2047.0000000000005" y="582" as="sourcePoint" />
          </mxGeometry>
        </mxCell>
        <mxCell id="0Z7Hvn-ogQvWHSM3ic3e-203" value="OPERAND" style="text;html=1;align=center;verticalAlign=middle;resizable=0;points=[];autosize=1;strokeColor=none;fillColor=none;" vertex="1" parent="1">
          <mxGeometry x="2010" y="548" width="80" height="30" as="geometry" />
        </mxCell>
        <mxCell id="0Z7Hvn-ogQvWHSM3ic3e-204" value="OPERAND" style="text;html=1;align=center;verticalAlign=middle;resizable=0;points=[];autosize=1;strokeColor=none;fillColor=none;" vertex="1" parent="1">
          <mxGeometry x="2207" y="548" width="80" height="30" as="geometry" />
        </mxCell>
        <mxCell id="0Z7Hvn-ogQvWHSM3ic3e-205" style="edgeStyle=orthogonalEdgeStyle;rounded=0;orthogonalLoop=1;jettySize=auto;html=1;entryX=0.503;entryY=-0.064;entryDx=0;entryDy=0;entryPerimeter=0;endArrow=none;endFill=0;" edge="1" parent="1" source="0Z7Hvn-ogQvWHSM3ic3e-201">
          <mxGeometry relative="1" as="geometry">
            <mxPoint x="2047.2399999999998" y="550.0799999999999" as="targetPoint" />
          </mxGeometry>
        </mxCell>
        <mxCell id="0Z7Hvn-ogQvWHSM3ic3e-206" style="edgeStyle=orthogonalEdgeStyle;rounded=0;orthogonalLoop=1;jettySize=auto;html=1;entryX=0.516;entryY=-0.033;entryDx=0;entryDy=0;entryPerimeter=0;endArrow=none;endFill=0;" edge="1" parent="1" source="0Z7Hvn-ogQvWHSM3ic3e-201">
          <mxGeometry relative="1" as="geometry">
            <Array as="points">
              <mxPoint x="2082" y="522" />
              <mxPoint x="2248" y="522" />
            </Array>
            <mxPoint x="2248.2799999999997" y="551.01" as="targetPoint" />
          </mxGeometry>
        </mxCell>
        <mxCell id="0Z7Hvn-ogQvWHSM3ic3e-207" style="edgeStyle=orthogonalEdgeStyle;rounded=0;orthogonalLoop=1;jettySize=auto;html=1;endArrow=none;endFill=0;" edge="1" parent="1" source="0Z7Hvn-ogQvWHSM3ic3e-208" target="0Z7Hvn-ogQvWHSM3ic3e-210">
          <mxGeometry relative="1" as="geometry" />
        </mxCell>
        <mxCell id="0Z7Hvn-ogQvWHSM3ic3e-208" value="LOS" style="text;html=1;align=center;verticalAlign=middle;resizable=0;points=[];autosize=1;strokeColor=none;fillColor=none;" vertex="1" parent="1">
          <mxGeometry x="2112" y="550" width="50" height="30" as="geometry" />
        </mxCell>
        <mxCell id="0Z7Hvn-ogQvWHSM3ic3e-209" style="edgeStyle=orthogonalEdgeStyle;rounded=0;orthogonalLoop=1;jettySize=auto;html=1;entryX=0.497;entryY=0.012;entryDx=0;entryDy=0;entryPerimeter=0;endArrow=none;endFill=0;" edge="1" parent="1" source="0Z7Hvn-ogQvWHSM3ic3e-201" target="0Z7Hvn-ogQvWHSM3ic3e-208">
          <mxGeometry relative="1" as="geometry">
            <Array as="points">
              <mxPoint x="2082" y="522" />
              <mxPoint x="2137" y="522" />
            </Array>
          </mxGeometry>
        </mxCell>
        <mxCell id="0Z7Hvn-ogQvWHSM3ic3e-210" value="==" style="text;html=1;align=center;verticalAlign=middle;resizable=0;points=[];autosize=1;strokeColor=none;fillColor=none;" vertex="1" parent="1">
          <mxGeometry x="2122" y="632" width="40" height="30" as="geometry" />
        </mxCell>
        <mxCell id="0Z7Hvn-ogQvWHSM3ic3e-211" value="id2" style="text;html=1;align=center;verticalAlign=middle;resizable=0;points=[];autosize=1;strokeColor=none;fillColor=none;" vertex="1" parent="1">
          <mxGeometry x="2217" y="632" width="40" height="30" as="geometry" />
        </mxCell>
        <mxCell id="0Z7Hvn-ogQvWHSM3ic3e-212" style="edgeStyle=orthogonalEdgeStyle;rounded=0;orthogonalLoop=1;jettySize=auto;html=1;entryX=0.461;entryY=0.039;entryDx=0;entryDy=0;entryPerimeter=0;endArrow=none;endFill=0;" edge="1" parent="1" target="0Z7Hvn-ogQvWHSM3ic3e-211">
          <mxGeometry relative="1" as="geometry">
            <Array as="points">
              <mxPoint x="2235" y="592" />
              <mxPoint x="2235" y="592" />
            </Array>
            <mxPoint x="2234.9655172413795" y="582" as="sourcePoint" />
          </mxGeometry>
        </mxCell>
        <mxCell id="0Z7Hvn-ogQvWHSM3ic3e-213" value="S" style="text;html=1;align=center;verticalAlign=middle;resizable=0;points=[];autosize=1;strokeColor=none;fillColor=none;" vertex="1" parent="1">
          <mxGeometry x="2150" y="370" width="30" height="30" as="geometry" />
        </mxCell>
        <mxCell id="0Z7Hvn-ogQvWHSM3ic3e-214" style="edgeStyle=orthogonalEdgeStyle;rounded=0;orthogonalLoop=1;jettySize=auto;html=1;entryX=0.534;entryY=0.048;entryDx=0;entryDy=0;entryPerimeter=0;endArrow=none;endFill=0;" edge="1" parent="1" source="0Z7Hvn-ogQvWHSM3ic3e-213" target="0Z7Hvn-ogQvWHSM3ic3e-200">
          <mxGeometry relative="1" as="geometry" />
        </mxCell>
        <mxCell id="0Z7Hvn-ogQvWHSM3ic3e-215" value="id5" style="text;html=1;align=center;verticalAlign=middle;resizable=0;points=[];autosize=1;strokeColor=none;fillColor=none;" vertex="1" parent="1">
          <mxGeometry x="2020" y="618" width="40" height="30" as="geometry" />
        </mxCell>
        <mxCell id="0Z7Hvn-ogQvWHSM3ic3e-216" style="edgeStyle=orthogonalEdgeStyle;rounded=0;orthogonalLoop=1;jettySize=auto;html=1;endArrow=none;endFill=0;" edge="1" parent="1" source="0Z7Hvn-ogQvWHSM3ic3e-217">
          <mxGeometry relative="1" as="geometry">
            <mxPoint x="2350" y="470" as="targetPoint" />
          </mxGeometry>
        </mxCell>
        <mxCell id="0Z7Hvn-ogQvWHSM3ic3e-217" value="S" style="text;html=1;align=center;verticalAlign=middle;resizable=0;points=[];autosize=1;strokeColor=none;fillColor=none;" vertex="1" parent="1">
          <mxGeometry x="2380" y="422" width="30" height="30" as="geometry" />
        </mxCell>
        <mxCell id="0Z7Hvn-ogQvWHSM3ic3e-218" style="edgeStyle=orthogonalEdgeStyle;rounded=0;orthogonalLoop=1;jettySize=auto;html=1;entryX=0.496;entryY=-0.061;entryDx=0;entryDy=0;entryPerimeter=0;endArrow=none;endFill=0;" edge="1" parent="1" source="0Z7Hvn-ogQvWHSM3ic3e-213" target="0Z7Hvn-ogQvWHSM3ic3e-217">
          <mxGeometry relative="1" as="geometry" />
        </mxCell>
        <mxCell id="0Z7Hvn-ogQvWHSM3ic3e-219" style="edgeStyle=orthogonalEdgeStyle;rounded=0;orthogonalLoop=1;jettySize=auto;html=1;endArrow=none;endFill=0;" edge="1" parent="1" source="0Z7Hvn-ogQvWHSM3ic3e-220" target="0Z7Hvn-ogQvWHSM3ic3e-222">
          <mxGeometry relative="1" as="geometry">
            <Array as="points">
              <mxPoint x="2350" y="550" />
              <mxPoint x="2320" y="550" />
            </Array>
          </mxGeometry>
        </mxCell>
        <mxCell id="0Z7Hvn-ogQvWHSM3ic3e-220" value="OPERATION" style="text;html=1;align=center;verticalAlign=middle;resizable=0;points=[];autosize=1;strokeColor=none;fillColor=none;" vertex="1" parent="1">
          <mxGeometry x="2305" y="478" width="90" height="30" as="geometry" />
        </mxCell>
        <mxCell id="0Z7Hvn-ogQvWHSM3ic3e-221" style="edgeStyle=orthogonalEdgeStyle;rounded=0;orthogonalLoop=1;jettySize=auto;html=1;endArrow=none;endFill=0;" edge="1" parent="1" source="0Z7Hvn-ogQvWHSM3ic3e-222" target="0Z7Hvn-ogQvWHSM3ic3e-228">
          <mxGeometry relative="1" as="geometry" />
        </mxCell>
        <mxCell id="0Z7Hvn-ogQvWHSM3ic3e-222" value="OPERAND" style="text;html=1;align=center;verticalAlign=middle;resizable=0;points=[];autosize=1;strokeColor=none;fillColor=none;" vertex="1" parent="1">
          <mxGeometry x="2280" y="578" width="80" height="30" as="geometry" />
        </mxCell>
        <mxCell id="0Z7Hvn-ogQvWHSM3ic3e-223" style="edgeStyle=orthogonalEdgeStyle;rounded=0;orthogonalLoop=1;jettySize=auto;html=1;endArrow=none;endFill=0;" edge="1" parent="1" source="0Z7Hvn-ogQvWHSM3ic3e-224">
          <mxGeometry relative="1" as="geometry">
            <mxPoint x="2390" y="630" as="targetPoint" />
          </mxGeometry>
        </mxCell>
        <mxCell id="0Z7Hvn-ogQvWHSM3ic3e-224" value="OS" style="text;html=1;align=center;verticalAlign=middle;resizable=0;points=[];autosize=1;strokeColor=none;fillColor=none;" vertex="1" parent="1">
          <mxGeometry x="2370" y="578" width="40" height="30" as="geometry" />
        </mxCell>
        <mxCell id="0Z7Hvn-ogQvWHSM3ic3e-226" style="edgeStyle=orthogonalEdgeStyle;rounded=0;orthogonalLoop=1;jettySize=auto;html=1;entryX=0.484;entryY=0.03;entryDx=0;entryDy=0;entryPerimeter=0;endArrow=none;endFill=0;" edge="1" parent="1" source="0Z7Hvn-ogQvWHSM3ic3e-220" target="0Z7Hvn-ogQvWHSM3ic3e-224">
          <mxGeometry relative="1" as="geometry">
            <Array as="points">
              <mxPoint x="2350" y="550" />
              <mxPoint x="2389" y="550" />
            </Array>
          </mxGeometry>
        </mxCell>
        <mxCell id="0Z7Hvn-ogQvWHSM3ic3e-228" value="id1" style="text;html=1;align=center;verticalAlign=middle;resizable=0;points=[];autosize=1;strokeColor=none;fillColor=none;" vertex="1" parent="1">
          <mxGeometry x="2300" y="632" width="40" height="30" as="geometry" />
        </mxCell>
        <mxCell id="0Z7Hvn-ogQvWHSM3ic3e-229" value="++" style="text;html=1;align=center;verticalAlign=middle;resizable=0;points=[];autosize=1;strokeColor=none;fillColor=none;" vertex="1" parent="1">
          <mxGeometry x="2370" y="632" width="40" height="30" as="geometry" />
        </mxCell>
      </root>
    </mxGraphModel>
  </diagram>
</mxfile>
